<svg width="2194" height="1989" viewBox="0 0 2194 1989" fill="none" xmlns="http://www.w3.org/2000/svg">
<path d="M2172.13 1452.95C2206.16 1308.12 2195.98 924.876 2172.13 879.871C2172.13 879.871 1242.21 1287.51 1073.3 1292.81V1988.99C1211.43 1986.33 2138.09 1597.79 2172.13 1452.95Z" fill="#1E293B"/>
<path d="M14.9539 1452.95C37.4834 1605.75 935.17 1991.64 1073.3 1988.99V1292.81C904.388 1298.12 14.9539 879.871 14.9539 879.871C-2.21416 918.249 -7.57567 1300.16 14.9539 1452.95Z" fill="#374151"/>
<path d="M2172.13 879.871C2148.27 834.865 1195.59 -0.842842 1073.3 0.000638058V1292.81C1242.21 1287.51 2172.13 879.871 2172.13 879.871Z" fill="#1E293B"/>
<path d="M14.9539 879.871C14.9539 879.871 904.388 1298.12 1073.3 1292.81L1073.3 0.00058666C951.014 0.844067 32.1219 841.492 14.9539 879.871Z" fill="#374151"/>
<path d="M1928.35 1377.88C1954.83 1265.18 1946.91 966.983 1928.35 931.964C1928.35 931.964 1204.81 1249.15 1073.39 1253.28V1794.97C1180.86 1792.9 1901.87 1490.58 1928.35 1377.88Z" fill="#F59E0B"/>
<path d="M249.924 1377.88C267.454 1496.77 965.915 1797.03 1073.39 1794.97V1253.28C941.964 1257.4 249.924 931.964 249.924 931.964C236.566 961.826 232.395 1258.99 249.924 1377.88Z" fill="#FACC15"/>
<path d="M1928.35 931.964C1909.79 896.945 1168.54 246.68 1073.39 247.336V1253.28C1204.81 1249.15 1928.35 931.964 1928.35 931.964Z" fill="#EAB308"/>
<path d="M249.924 931.964C249.924 931.964 941.964 1257.4 1073.39 1253.28L1073.39 247.336C978.242 247.993 263.282 902.101 249.924 931.964Z" fill="#FCD34D"/>
</svg>
